<svg width="100%" height="100%" viewBox="0 0 330 130" font-family="Consolas" style="background-color:rgb(250,250,230);stroke:black;" xmlns="http://www.w3.org/2000/svg" xmlns:xlink="http://www.w3.org/1999/xlink">
  <defs>
    <style type="text/css">
    </style>
  </defs>
  <line x1="0" y1="130" x2="0" y2="0" style="stroke:SlateBlue;stroke-width:0.1px;" />
  <line x1="10" y1="130" x2="10" y2="0" style="stroke:SlateBlue;stroke-width:0.1px;" />
  <line x1="20" y1="130" x2="20" y2="0" style="stroke:SlateBlue;stroke-width:0.1px;" />
  <line x1="30" y1="130" x2="30" y2="0" style="stroke:SlateBlue;stroke-width:0.1px;" />
  <line x1="40" y1="130" x2="40" y2="0" style="stroke:SlateBlue;stroke-width:0.1px;" />
  <line x1="50" y1="130" x2="50" y2="0" style="stroke:SlateBlue;stroke-width:0.1px;" />
  <line x1="60" y1="130" x2="60" y2="0" style="stroke:SlateBlue;stroke-width:0.1px;" />
  <line x1="70" y1="130" x2="70" y2="0" style="stroke:SlateBlue;stroke-width:0.1px;" />
  <line x1="80" y1="130" x2="80" y2="0" style="stroke:SlateBlue;stroke-width:0.1px;" />
  <line x1="90" y1="130" x2="90" y2="0" style="stroke:SlateBlue;stroke-width:0.1px;" />
  <line x1="100" y1="130" x2="100" y2="0" style="stroke:SlateBlue;stroke-width:0.1px;" />
  <line x1="110" y1="130" x2="110" y2="0" style="stroke:SlateBlue;stroke-width:0.1px;" />
  <line x1="120" y1="130" x2="120" y2="0" style="stroke:SlateBlue;stroke-width:0.1px;" />
  <line x1="130" y1="130" x2="130" y2="0" style="stroke:SlateBlue;stroke-width:0.1px;" />
  <line x1="140" y1="130" x2="140" y2="0" style="stroke:SlateBlue;stroke-width:0.1px;" />
  <line x1="150" y1="130" x2="150" y2="0" style="stroke:SlateBlue;stroke-width:0.1px;" />
  <line x1="160" y1="130" x2="160" y2="0" style="stroke:SlateBlue;stroke-width:0.1px;" />
  <line x1="170" y1="130" x2="170" y2="0" style="stroke:SlateBlue;stroke-width:0.1px;" />
  <line x1="180" y1="130" x2="180" y2="0" style="stroke:SlateBlue;stroke-width:0.1px;" />
  <line x1="190" y1="130" x2="190" y2="0" style="stroke:SlateBlue;stroke-width:0.1px;" />
  <line x1="200" y1="130" x2="200" y2="0" style="stroke:SlateBlue;stroke-width:0.1px;" />
  <line x1="210" y1="130" x2="210" y2="0" style="stroke:SlateBlue;stroke-width:0.1px;" />
  <line x1="220" y1="130" x2="220" y2="0" style="stroke:SlateBlue;stroke-width:0.1px;" />
  <line x1="230" y1="130" x2="230" y2="0" style="stroke:SlateBlue;stroke-width:0.1px;" />
  <line x1="240" y1="130" x2="240" y2="0" style="stroke:SlateBlue;stroke-width:0.1px;" />
  <line x1="250" y1="130" x2="250" y2="0" style="stroke:SlateBlue;stroke-width:0.1px;" />
  <line x1="260" y1="130" x2="260" y2="0" style="stroke:SlateBlue;stroke-width:0.1px;" />
  <line x1="270" y1="130" x2="270" y2="0" style="stroke:SlateBlue;stroke-width:0.1px;" />
  <line x1="280" y1="130" x2="280" y2="0" style="stroke:SlateBlue;stroke-width:0.1px;" />
  <line x1="290" y1="130" x2="290" y2="0" style="stroke:SlateBlue;stroke-width:0.1px;" />
  <line x1="300" y1="130" x2="300" y2="0" style="stroke:SlateBlue;stroke-width:0.1px;" />
  <line x1="310" y1="130" x2="310" y2="0" style="stroke:SlateBlue;stroke-width:0.1px;" />
  <line x1="320" y1="130" x2="320" y2="0" style="stroke:SlateBlue;stroke-width:0.1px;" />
  <line x1="330" y1="130" x2="330" y2="0" style="stroke:SlateBlue;stroke-width:0.1px;" />
  <line x1="0" y1="130" x2="330" y2="130" style="stroke:SlateBlue;stroke-width:0.1px;" />
  <line x1="0" y1="120" x2="330" y2="120" style="stroke:SlateBlue;stroke-width:0.1px;" />
  <line x1="0" y1="110" x2="330" y2="110" style="stroke:SlateBlue;stroke-width:0.1px;" />
  <line x1="0" y1="100" x2="330" y2="100" style="stroke:SlateBlue;stroke-width:0.1px;" />
  <line x1="0" y1="90" x2="330" y2="90" style="stroke:SlateBlue;stroke-width:0.1px;" />
  <line x1="0" y1="80" x2="330" y2="80" style="stroke:SlateBlue;stroke-width:0.1px;" />
  <line x1="0" y1="70" x2="330" y2="70" style="stroke:SlateBlue;stroke-width:0.1px;" />
  <line x1="0" y1="60" x2="330" y2="60" style="stroke:SlateBlue;stroke-width:0.1px;" />
  <line x1="0" y1="50" x2="330" y2="50" style="stroke:SlateBlue;stroke-width:0.1px;" />
  <line x1="0" y1="40" x2="330" y2="40" style="stroke:SlateBlue;stroke-width:0.1px;" />
  <line x1="0" y1="30" x2="330" y2="30" style="stroke:SlateBlue;stroke-width:0.1px;" />
  <line x1="0" y1="20" x2="330" y2="20" style="stroke:SlateBlue;stroke-width:0.1px;" />
  <line x1="0" y1="10" x2="330" y2="10" style="stroke:SlateBlue;stroke-width:0.1px;" />
  <line x1="0" y1="0" x2="330" y2="0" style="stroke:SlateBlue;stroke-width:0.1px;" />
  <ellipse cx="165" cy="65" rx="25" ry="25" style="stroke:blue;stroke-width:0.5;fill:gold;opacity:0.6;" />
  <ellipse cx="195.0" cy="65.0" rx="30" ry="10" style="stroke:red;stroke-width:1.5;fill:OrangeRed;opacity:0.3;" />
  <ellipse cx="150.0" cy="39.01923788646684" rx="30" ry="10" style="stroke:red;stroke-width:1.5;fill:OrangeRed;opacity:0.3;" transform="rotate(-120.0,150.0,39.01923788646684)" />
  <ellipse cx="150.0" cy="90.98076211353316" rx="30" ry="10" style="stroke:red;stroke-width:1.5;fill:OrangeRed;opacity:0.3;" transform="rotate(-240.0,150.0,90.98076211353316)" />
</svg>
