<svg width="100%" height="100%" viewBox="0 0 1200 600" font-family="Consolas" style="background-color:goldenrod;stroke:black;" xmlns="http://www.w3.org/2000/svg" xmlns:xlink="http://www.w3.org/1999/xlink">
  <defs>
    <style type="text/css">
    </style>
  </defs>
  <path style="fill:none;stroke:white;stroke-width:2px;" d="M 721,315 Q 711,315 712,324 L 715,399 Q 715,404 707,404 Q 699,404 699,398 L 696,301 Q 697,297 692,297 L 684,297 Q 679,299 680,308 L 681,461 Q 681,463 671,464 Q 666,465 666,458 L 667,311 Q 667,308 660,306 Q 653,306 653,312 L 654,490 L 657,538 Q 658,545 650,545 Q 644,545 643,538 L 642,487 L 642,334 Q 642,332 640,327 Q 638,322 638,320 L 638,308 Q 638,303 630,299 L 590,288 Q 586,286 571,288 Q 558,289 547,281 Q 537,276 520,277 L 41,311 Q 31,305 41,299 L 520,265 Q 539,265 550,253 Q 556,245 573,243 Q 589,243 596,250 Q 599,253 610,252 Q 622,249 623,239 L 560,70 Q 552,49 558,43 Q 568,37 573,54 L 578,70 L 636,231 Q 641,242 654,239 Q 662,237 658,224 L 615,112 Q 610,100 623,95 Q 634,93 639,104 L 683,225 Q 686,232 696,228 Q 705,225 701,215 L 675,139 Q 671,129 684,126 Q 692,125 696,136 L 713,196 L 717,208 Q 719,228 733,224 Q 748,223 747,212 Q 743,183 750,166 Q 753,154 760,154 Q 767,153 760,171 L 757,185 L 756,200 Q 760,205 766,202 Q 770,199 771,173 Q 774,159 777,155 Q 783,153 786,155 Q 786,167 784,186 L 781,197 Q 780,205 790,203 Q 800,203 801,195 L 803,161 Q 803,155 811,153 Q 818,152 816,160 L 813,198 Q 814,208 800,210 L 782,215 Q 776,217 775,225 Q 775,229 821,223 L 883,211 L 945,200 Q 954,198 955,204 Q 957,210 951,211 L 894,221 L 831,231 Q 821,233 826,240 Q 829,247 836,244 L 914,231 L 970,219 L 1010,211 Q 1026,209 1026,214 Q 1027,219 1017,221 L 966,230 L 916,240 L 837,253 Q 829,256 830,263 Q 833,266 844,264 L 936,248 L 1050,226 L 1170,204 Q 1186,200 1189,207 Q 1189,211 1180,214 L 1162,217 L 1087,230 L 986,250 L 845,274 Q 829,276 829,282 Q 830,285 842,283 L 923,270 L 1030,250 Q 1046,247 1047,252 Q 1047,257 1037,258 L 958,272 L 845,291 Q 834,293 835,299 Q 835,303 845,301 L 887,293 L 960,280 Q 974,278 976,283 Q 976,289 962,291 L 882,303 L 821,314 L 794,319 Q 788,321 787,325 Q 787,329 798,330 Q 813,331 824,334 Q 831,336 839,344 Q 841,352 835,357 Q 830,357 824,354 Q 808,340 802,338 Q 797,338 795,341 Q 798,346 823,362 Q 824,367 820,371 Q 813,372 802,365 Q 795,358 789,356 Q 780,361 781,365 Q 800,378 802,383 Q 801,386 794,392 Q 789,393 770,380 Q 750,370 750,320 Q 750,313 744,313 z " />
</svg>
