<svg width="100%" height="100%" viewBox="0 0 330 130" font-family="Consolas" style="background-color:rgb(250,250,230);stroke:black;" xmlns="http://www.w3.org/2000/svg" xmlns:xlink="http://www.w3.org/1999/xlink">
  <defs>
    <style type="text/css">
    </style>
  </defs>
  <line x1="0" y1="130" x2="0" y2="0" style="stroke:SlateBlue;stroke-width:0.1px;" />
  <line x1="10" y1="130" x2="10" y2="0" style="stroke:SlateBlue;stroke-width:0.1px;" />
  <line x1="20" y1="130" x2="20" y2="0" style="stroke:SlateBlue;stroke-width:0.1px;" />
  <line x1="30" y1="130" x2="30" y2="0" style="stroke:SlateBlue;stroke-width:0.1px;" />
  <line x1="40" y1="130" x2="40" y2="0" style="stroke:SlateBlue;stroke-width:0.1px;" />
  <line x1="50" y1="130" x2="50" y2="0" style="stroke:SlateBlue;stroke-width:0.1px;" />
  <line x1="60" y1="130" x2="60" y2="0" style="stroke:SlateBlue;stroke-width:0.1px;" />
  <line x1="70" y1="130" x2="70" y2="0" style="stroke:SlateBlue;stroke-width:0.1px;" />
  <line x1="80" y1="130" x2="80" y2="0" style="stroke:SlateBlue;stroke-width:0.1px;" />
  <line x1="90" y1="130" x2="90" y2="0" style="stroke:SlateBlue;stroke-width:0.1px;" />
  <line x1="100" y1="130" x2="100" y2="0" style="stroke:SlateBlue;stroke-width:0.1px;" />
  <line x1="110" y1="130" x2="110" y2="0" style="stroke:SlateBlue;stroke-width:0.1px;" />
  <line x1="120" y1="130" x2="120" y2="0" style="stroke:SlateBlue;stroke-width:0.1px;" />
  <line x1="130" y1="130" x2="130" y2="0" style="stroke:SlateBlue;stroke-width:0.1px;" />
  <line x1="140" y1="130" x2="140" y2="0" style="stroke:SlateBlue;stroke-width:0.1px;" />
  <line x1="150" y1="130" x2="150" y2="0" style="stroke:SlateBlue;stroke-width:0.1px;" />
  <line x1="160" y1="130" x2="160" y2="0" style="stroke:SlateBlue;stroke-width:0.1px;" />
  <line x1="170" y1="130" x2="170" y2="0" style="stroke:SlateBlue;stroke-width:0.1px;" />
  <line x1="180" y1="130" x2="180" y2="0" style="stroke:SlateBlue;stroke-width:0.1px;" />
  <line x1="190" y1="130" x2="190" y2="0" style="stroke:SlateBlue;stroke-width:0.1px;" />
  <line x1="200" y1="130" x2="200" y2="0" style="stroke:SlateBlue;stroke-width:0.1px;" />
  <line x1="210" y1="130" x2="210" y2="0" style="stroke:SlateBlue;stroke-width:0.1px;" />
  <line x1="220" y1="130" x2="220" y2="0" style="stroke:SlateBlue;stroke-width:0.1px;" />
  <line x1="230" y1="130" x2="230" y2="0" style="stroke:SlateBlue;stroke-width:0.1px;" />
  <line x1="240" y1="130" x2="240" y2="0" style="stroke:SlateBlue;stroke-width:0.1px;" />
  <line x1="250" y1="130" x2="250" y2="0" style="stroke:SlateBlue;stroke-width:0.1px;" />
  <line x1="260" y1="130" x2="260" y2="0" style="stroke:SlateBlue;stroke-width:0.1px;" />
  <line x1="270" y1="130" x2="270" y2="0" style="stroke:SlateBlue;stroke-width:0.1px;" />
  <line x1="280" y1="130" x2="280" y2="0" style="stroke:SlateBlue;stroke-width:0.1px;" />
  <line x1="290" y1="130" x2="290" y2="0" style="stroke:SlateBlue;stroke-width:0.1px;" />
  <line x1="300" y1="130" x2="300" y2="0" style="stroke:SlateBlue;stroke-width:0.1px;" />
  <line x1="310" y1="130" x2="310" y2="0" style="stroke:SlateBlue;stroke-width:0.1px;" />
  <line x1="320" y1="130" x2="320" y2="0" style="stroke:SlateBlue;stroke-width:0.1px;" />
  <line x1="330" y1="130" x2="330" y2="0" style="stroke:SlateBlue;stroke-width:0.1px;" />
  <line x1="0" y1="130" x2="330" y2="130" style="stroke:SlateBlue;stroke-width:0.1px;" />
  <line x1="0" y1="120" x2="330" y2="120" style="stroke:SlateBlue;stroke-width:0.1px;" />
  <line x1="0" y1="110" x2="330" y2="110" style="stroke:SlateBlue;stroke-width:0.1px;" />
  <line x1="0" y1="100" x2="330" y2="100" style="stroke:SlateBlue;stroke-width:0.1px;" />
  <line x1="0" y1="90" x2="330" y2="90" style="stroke:SlateBlue;stroke-width:0.1px;" />
  <line x1="0" y1="80" x2="330" y2="80" style="stroke:SlateBlue;stroke-width:0.1px;" />
  <line x1="0" y1="70" x2="330" y2="70" style="stroke:SlateBlue;stroke-width:0.1px;" />
  <line x1="0" y1="60" x2="330" y2="60" style="stroke:SlateBlue;stroke-width:0.1px;" />
  <line x1="0" y1="50" x2="330" y2="50" style="stroke:SlateBlue;stroke-width:0.1px;" />
  <line x1="0" y1="40" x2="330" y2="40" style="stroke:SlateBlue;stroke-width:0.1px;" />
  <line x1="0" y1="30" x2="330" y2="30" style="stroke:SlateBlue;stroke-width:0.1px;" />
  <line x1="0" y1="20" x2="330" y2="20" style="stroke:SlateBlue;stroke-width:0.1px;" />
  <line x1="0" y1="10" x2="330" y2="10" style="stroke:SlateBlue;stroke-width:0.1px;" />
  <line x1="0" y1="0" x2="330" y2="0" style="stroke:SlateBlue;stroke-width:0.1px;" />
  <polygon style="fill:gold;stroke:crimson;" points="137.06339097770922,46.458980337503164 80.0,5.0 22.93660902229079,46.45898033750315 44.732884862451606,113.54101966249684 115.26711513754837,113.54101966249685" />
  <polygon style="fill:yellow;stroke:blue;" points="108.2842712474619,36.7157287525381 51.7157287525381,36.7157287525381 51.71572875253809,93.2842712474619 108.2842712474619,93.2842712474619" />
  <polygon style="fill:lime;stroke:green;" points="97.32050807568878,75.0 80.0,45.0 62.67949192431122,75.0" />
  <polygon style="fill:gold;stroke:crimson;" points="307.0633909777092,46.458980337503164 285.2671151375484,16.45898033750315 250.0,5.0 214.7328848624516,16.45898033750315 192.93660902229078,46.45898033750315 192.93660902229078,83.54101966249684 214.7328848624516,113.54101966249684 250.0,125.0 285.2671151375484,113.54101966249685 307.0633909777092,83.54101966249686" />
  <polygon style="fill:yellow;stroke:blue;" points="286.9551813004515,49.6926627053964 265.3073372946036,28.04481869954853 234.6926627053964,28.04481869954853 213.04481869954853,49.6926627053964 213.04481869954853,80.30733729460358 234.6926627053964,101.95518130045146 265.3073372946036,101.95518130045147 286.95518130045144,80.30733729460361" />
  <polygon style="fill:lime;stroke:green;" points="270.0,65.0 260.0,47.679491924311236 240.0,47.67949192431122 230.0,65.0 240.0,82.32050807568876 260.0,82.32050807568878" />
</svg>
