<svg width="100%" height="100%" viewBox="0 0 330 150" font-family="Consolas" style="background-color:rgb(250,250,230);stroke:black;" xmlns="http://www.w3.org/2000/svg" xmlns:xlink="http://www.w3.org/1999/xlink">
  <defs>
    <style type="text/css">
    </style>
  </defs>
  <line x1="0" y1="150" x2="0" y2="0" style="stroke:SlateBlue;stroke-width:0.1px;" />
  <line x1="10" y1="150" x2="10" y2="0" style="stroke:SlateBlue;stroke-width:0.1px;" />
  <line x1="20" y1="150" x2="20" y2="0" style="stroke:SlateBlue;stroke-width:0.1px;" />
  <line x1="30" y1="150" x2="30" y2="0" style="stroke:SlateBlue;stroke-width:0.1px;" />
  <line x1="40" y1="150" x2="40" y2="0" style="stroke:SlateBlue;stroke-width:0.1px;" />
  <line x1="50" y1="150" x2="50" y2="0" style="stroke:SlateBlue;stroke-width:0.1px;" />
  <line x1="60" y1="150" x2="60" y2="0" style="stroke:SlateBlue;stroke-width:0.1px;" />
  <line x1="70" y1="150" x2="70" y2="0" style="stroke:SlateBlue;stroke-width:0.1px;" />
  <line x1="80" y1="150" x2="80" y2="0" style="stroke:SlateBlue;stroke-width:0.1px;" />
  <line x1="90" y1="150" x2="90" y2="0" style="stroke:SlateBlue;stroke-width:0.1px;" />
  <line x1="100" y1="150" x2="100" y2="0" style="stroke:SlateBlue;stroke-width:0.1px;" />
  <line x1="110" y1="150" x2="110" y2="0" style="stroke:SlateBlue;stroke-width:0.1px;" />
  <line x1="120" y1="150" x2="120" y2="0" style="stroke:SlateBlue;stroke-width:0.1px;" />
  <line x1="130" y1="150" x2="130" y2="0" style="stroke:SlateBlue;stroke-width:0.1px;" />
  <line x1="140" y1="150" x2="140" y2="0" style="stroke:SlateBlue;stroke-width:0.1px;" />
  <line x1="150" y1="150" x2="150" y2="0" style="stroke:SlateBlue;stroke-width:0.1px;" />
  <line x1="160" y1="150" x2="160" y2="0" style="stroke:SlateBlue;stroke-width:0.1px;" />
  <line x1="170" y1="150" x2="170" y2="0" style="stroke:SlateBlue;stroke-width:0.1px;" />
  <line x1="180" y1="150" x2="180" y2="0" style="stroke:SlateBlue;stroke-width:0.1px;" />
  <line x1="190" y1="150" x2="190" y2="0" style="stroke:SlateBlue;stroke-width:0.1px;" />
  <line x1="200" y1="150" x2="200" y2="0" style="stroke:SlateBlue;stroke-width:0.1px;" />
  <line x1="210" y1="150" x2="210" y2="0" style="stroke:SlateBlue;stroke-width:0.1px;" />
  <line x1="220" y1="150" x2="220" y2="0" style="stroke:SlateBlue;stroke-width:0.1px;" />
  <line x1="230" y1="150" x2="230" y2="0" style="stroke:SlateBlue;stroke-width:0.1px;" />
  <line x1="240" y1="150" x2="240" y2="0" style="stroke:SlateBlue;stroke-width:0.1px;" />
  <line x1="250" y1="150" x2="250" y2="0" style="stroke:SlateBlue;stroke-width:0.1px;" />
  <line x1="260" y1="150" x2="260" y2="0" style="stroke:SlateBlue;stroke-width:0.1px;" />
  <line x1="270" y1="150" x2="270" y2="0" style="stroke:SlateBlue;stroke-width:0.1px;" />
  <line x1="280" y1="150" x2="280" y2="0" style="stroke:SlateBlue;stroke-width:0.1px;" />
  <line x1="290" y1="150" x2="290" y2="0" style="stroke:SlateBlue;stroke-width:0.1px;" />
  <line x1="300" y1="150" x2="300" y2="0" style="stroke:SlateBlue;stroke-width:0.1px;" />
  <line x1="310" y1="150" x2="310" y2="0" style="stroke:SlateBlue;stroke-width:0.1px;" />
  <line x1="320" y1="150" x2="320" y2="0" style="stroke:SlateBlue;stroke-width:0.1px;" />
  <line x1="330" y1="150" x2="330" y2="0" style="stroke:SlateBlue;stroke-width:0.1px;" />
  <line x1="0" y1="150" x2="330" y2="150" style="stroke:SlateBlue;stroke-width:0.1px;" />
  <line x1="0" y1="140" x2="330" y2="140" style="stroke:SlateBlue;stroke-width:0.1px;" />
  <line x1="0" y1="130" x2="330" y2="130" style="stroke:SlateBlue;stroke-width:0.1px;" />
  <line x1="0" y1="120" x2="330" y2="120" style="stroke:SlateBlue;stroke-width:0.1px;" />
  <line x1="0" y1="110" x2="330" y2="110" style="stroke:SlateBlue;stroke-width:0.1px;" />
  <line x1="0" y1="100" x2="330" y2="100" style="stroke:SlateBlue;stroke-width:0.1px;" />
  <line x1="0" y1="90" x2="330" y2="90" style="stroke:SlateBlue;stroke-width:0.1px;" />
  <line x1="0" y1="80" x2="330" y2="80" style="stroke:SlateBlue;stroke-width:0.1px;" />
  <line x1="0" y1="70" x2="330" y2="70" style="stroke:SlateBlue;stroke-width:0.1px;" />
  <line x1="0" y1="60" x2="330" y2="60" style="stroke:SlateBlue;stroke-width:0.1px;" />
  <line x1="0" y1="50" x2="330" y2="50" style="stroke:SlateBlue;stroke-width:0.1px;" />
  <line x1="0" y1="40" x2="330" y2="40" style="stroke:SlateBlue;stroke-width:0.1px;" />
  <line x1="0" y1="30" x2="330" y2="30" style="stroke:SlateBlue;stroke-width:0.1px;" />
  <line x1="0" y1="20" x2="330" y2="20" style="stroke:SlateBlue;stroke-width:0.1px;" />
  <line x1="0" y1="10" x2="330" y2="10" style="stroke:SlateBlue;stroke-width:0.1px;" />
  <line x1="0" y1="0" x2="330" y2="0" style="stroke:SlateBlue;stroke-width:0.1px;" />
  <path style="stroke:red;stroke-width:0.25px;" d="M 20,30 h 290 M 20,10 h 290 M 80,145 v -80 M 190,130 h 130 M 190,110 h 130 M 190,90 h 130 M 190,70 h 130 " />
  <text x="165" y="30" style="stroke:none;fill:royalblue;font-family:Arial;font-size:20px; text-anchor:middle;">20px: abc ABC jql Ñ/Q Ó 0 .. 9</text>
  <text x="80" y="50" style="stroke:none;fill:royalblue;font-family:Arial;font-size:10px; text-anchor:middle;font-weight:bold">Alineamiento horizontal:</text>
  <text x="80" y="80" style="stroke:none;fill:royalblue;font-family:Arial;font-size:10px;">predefinido</text>
  <text x="80" y="100" style="stroke:none;fill:royalblue;font-family:Arial;font-size:10px; text-anchor:middle;">text-anchor:middle</text>
  <text x="80" y="120" style="stroke:none;fill:royalblue;font-family:Arial;font-size:10px; text-anchor:end;">text-anchor:end</text>
  <text x="80" y="140" style="stroke:none;fill:royalblue;font-family:Arial;font-size:10px; text-anchor:start;">text-anchor:start</text>
  <text x="250" y="50" style="stroke:none;fill:royalblue;font-family:Arial;font-size:10px; text-anchor:middle;font-weight:bold">Alineamiento vertical:</text>
  <text x="190" y="70" style="stroke:none;fill:royalblue;font-family:Arial;font-size:10px; dominant-baseline:auto;">dominant-baseline:auto</text>
  <text x="190" y="90" style="stroke:none;fill:royalblue;font-family:Arial;font-size:10px; dominant-baseline:middle;">dominant-baseline:middle</text>
  <text x="190" y="110" style="stroke:none;fill:royalblue;font-family:Arial;font-size:10px; dominant-baseline:central;">dominant-baseline:central</text>
  <text x="190" y="130" style="stroke:none;fill:royalblue;font-family:Arial;font-size:10px; dominant-baseline:hanging;">dominant-baseline:hanging</text>
  <text x="165" y="75" style="stroke:none;fill:royalblue;font-family:Arial;font-size:10px; text-anchor:middle;" transform="rotate(-45,165,75)">texto rotado</text>
</svg>
